<?xml version="1.0" encoding="utf-8"?>
<!-- Generator: Adobe Illustrator 17.0.0, SVG Export Plug-In . SVG Version: 6.00 Build 0)  -->
<!DOCTYPE svg PUBLIC "-//W3C//DTD SVG 1.1//EN" "http://www.w3.org/Graphics/SVG/1.1/DTD/svg11.dtd">
<svg version="1.1" id="Layer_1" xmlns="http://www.w3.org/2000/svg" xmlns:xlink="http://www.w3.org/1999/xlink" x="0px" y="0px"
	 width="100px" height="36px" viewBox="0 0 100 36" enable-background="new 0 0 100 36" xml:space="preserve">
<g>
	<path fill="#AEAEB8" d="M8.287,22.246L7.39,22.159c-0.96-0.06-0.94-1.572-0.94-1.813V8.744c0.638-1.053,1.053-2.273,1.053-3.772
		c0-3.227-1.732-4.385-3.364-4.385c-1.896,0-3.186,1.432-3.186,3.077c0,1.737,1.524,3.027,3.13,3.027
		c0.447,0,0.635-0.012,0.955-0.134c0.081,0.241,0.165,0.738,0.098,1.241c-0.194,1.426-1.101,2.465-2.023,3.078
		c-1.662,1.107-3.105,1.119-3.105,1.119v1.28h1.328c0.185,0,0.514,0.044,0.514,0.48v5.851c0,1.292-0.023,2.484-0.957,2.581L0,22.268
		v1.583h8.287V22.246z"/>
	<path fill="#AEAEB8" d="M22.097,0C14.674,0,9.193,5.786,9.193,12.422c0,6.559,5.55,12.291,12.861,12.291
		c1.689,0,3.102-0.321,4.39-0.748c0.416,1.217,0.137,2.548-0.507,3.457c-0.555,0.782-1.902,1.748-3.416,1.741
		c-4.263-0.018-6.032-2.684-11.169-2.684c-4.048,0-5.978,3.749-4.374,6.505c0.775,1.333,1.79,2.116,4.524,2.612
		c0.091-0.39,0.184-0.711,0.368-1.261c-0.739-0.196-0.979-0.249-1.57-0.464c-0.828-0.298-1.124-1.048-1.106-1.688
		c0.031-1.013,0.949-1.553,1.68-1.759c2.847-0.799,8.338,0.308,8.338,0.308c2.241,0.225,6.635,0.917,8.7-3.188
		c0.65-1.288,0.683-2.967,0.18-4.3c2.798-1.466,6.773-5.106,6.773-10.823C34.863,5.811,29.455,0,22.097,0 M19.578,22.34
		c0.635-0.546,1.519-1.033,2.393-1.133c1.287-0.146,2.188,0.254,3.005,0.787c-0.707,0.612-1.865,1.006-2.859,1.006
		C21.007,22.999,20.2,22.726,19.578,22.34 M28.52,12.422c0,3.771-0.942,6.745-2.325,8.263c-1.15-0.864-2.436-1.243-3.747-1.243
		c-1.201,0-3.14,0.596-4.229,1.75c-1.855-2.025-2.603-5.002-2.603-8.823c0-5.17,1.901-10.593,6.442-10.593
		C26.565,1.777,28.52,7.11,28.52,12.422"/>
	<path fill="#AEAEB8" d="M48.253,7.098V7.051c0.31-0.127,0.562-0.262,0.762-0.41c0.193-0.145,0.354-0.332,0.476-0.553
		c0.122-0.226,0.183-0.491,0.183-0.796c0-0.365-0.087-0.666-0.259-0.9c-0.169-0.233-0.43-0.407-0.782-0.527
		c-0.35-0.121-0.814-0.181-1.392-0.181h-2.985v0.259c0.167,0.044,0.284,0.086,0.357,0.124c0.067,0.037,0.122,0.084,0.165,0.146
		c0.042,0.061,0.071,0.146,0.09,0.255c0.018,0.112,0.03,0.288,0.03,0.529v4.544c0,0.258-0.016,0.452-0.04,0.578
		c-0.023,0.126-0.071,0.222-0.147,0.291c-0.077,0.068-0.228,0.13-0.454,0.186v0.257h2.81c0.563,0,1.04-0.067,1.439-0.203
		c0.397-0.132,0.703-0.353,0.925-0.654c0.222-0.3,0.329-0.688,0.329-1.165c0-0.412-0.127-0.769-0.379-1.069
		C49.123,7.464,48.748,7.241,48.253,7.098 M45.914,4.179c0.112-0.007,0.28-0.014,0.506-0.021c0.226-0.007,0.407-0.01,0.547-0.01
		c0.23,0,0.442,0.019,0.638,0.06c0.198,0.04,0.366,0.108,0.51,0.204c0.144,0.092,0.256,0.22,0.338,0.379
		c0.083,0.159,0.122,0.359,0.122,0.603c0,0.49-0.146,0.864-0.438,1.121c-0.293,0.258-0.718,0.386-1.268,0.386h-0.955V4.179z
		 M48.485,9.706c-0.116,0.226-0.309,0.397-0.572,0.51c-0.264,0.117-0.634,0.175-1.112,0.175c-0.326,0-0.622-0.013-0.887-0.037V7.361
		h0.845c0.471,0,0.844,0.055,1.112,0.163c0.269,0.109,0.469,0.275,0.6,0.495c0.127,0.218,0.191,0.499,0.191,0.84
		C48.662,9.199,48.604,9.48,48.485,9.706"/>
	<path fill="#AEAEB8" d="M55.854,3.943c0.222,0.055,0.368,0.114,0.439,0.173c0.072,0.06,0.121,0.145,0.15,0.257
		c0.033,0.111,0.05,0.319,0.05,0.625v3.284c0,0.431-0.025,0.772-0.073,1.029c-0.046,0.254-0.135,0.47-0.266,0.644
		c-0.126,0.177-0.288,0.304-0.481,0.392c-0.193,0.085-0.419,0.128-0.672,0.128c-0.279,0-0.506-0.028-0.692-0.088
		c-0.187-0.056-0.346-0.149-0.481-0.276c-0.132-0.128-0.239-0.307-0.312-0.54c-0.075-0.23-0.11-0.515-0.11-0.854v-3.72
		c0-0.286,0.014-0.491,0.041-0.614c0.031-0.123,0.086-0.214,0.167-0.276c0.077-0.063,0.219-0.116,0.424-0.164V3.684h-2.295v0.259
		c0.182,0.044,0.302,0.087,0.37,0.127c0.065,0.042,0.112,0.089,0.147,0.146c0.036,0.055,0.062,0.132,0.082,0.226
		c0.018,0.097,0.027,0.282,0.027,0.554v3.457c0,0.451,0.046,0.823,0.135,1.115c0.093,0.292,0.239,0.546,0.445,0.762
		c0.205,0.214,0.465,0.369,0.78,0.464c0.313,0.097,0.691,0.143,1.13,0.143c0.362,0,0.682-0.036,0.949-0.11
		c0.271-0.074,0.498-0.174,0.688-0.302c0.19-0.128,0.347-0.284,0.476-0.466c0.136-0.203,0.241-0.437,0.308-0.699
		c0.075-0.277,0.111-0.606,0.111-0.985V4.997c0-0.286,0.014-0.49,0.044-0.607c0.028-0.121,0.083-0.211,0.161-0.274
		c0.077-0.063,0.22-0.122,0.431-0.173V3.684h-2.175V3.943z"/>
	<path fill="#AEAEB8" d="M63.516,7.409c-0.26-0.193-0.621-0.401-1.085-0.625c-0.383-0.182-0.674-0.346-0.87-0.495
		c-0.199-0.145-0.345-0.306-0.436-0.477c-0.093-0.172-0.137-0.38-0.137-0.629c0-0.236,0.053-0.437,0.162-0.607
		c0.11-0.17,0.255-0.298,0.442-0.383c0.187-0.084,0.401-0.126,0.634-0.126c0.277,0,0.496,0.037,0.668,0.103
		c0.169,0.067,0.318,0.187,0.445,0.36c0.127,0.172,0.235,0.41,0.319,0.719h0.538V3.832c-0.398-0.097-0.724-0.164-0.989-0.189
		c-0.263-0.029-0.535-0.042-0.81-0.042c-0.477,0-0.9,0.079-1.27,0.236c-0.37,0.157-0.65,0.381-0.84,0.67
		c-0.19,0.289-0.285,0.629-0.285,1.021c0,0.269,0.059,0.517,0.183,0.746c0.121,0.226,0.307,0.439,0.552,0.633
		c0.248,0.193,0.584,0.394,1.008,0.595c0.441,0.212,0.767,0.396,0.983,0.553c0.215,0.158,0.369,0.324,0.464,0.503
		c0.094,0.177,0.139,0.398,0.139,0.662c0,0.41-0.113,0.72-0.337,0.934c-0.228,0.213-0.555,0.32-0.981,0.32
		c-0.308,0-0.561-0.043-0.757-0.128c-0.196-0.088-0.358-0.217-0.481-0.397c-0.126-0.179-0.222-0.423-0.296-0.73h-0.544v1.439
		c0.746,0.186,1.404,0.279,1.975,0.279c0.352,0,0.676-0.037,0.975-0.107c0.295-0.071,0.55-0.19,0.763-0.347
		c0.212-0.158,0.38-0.368,0.499-0.621c0.119-0.253,0.178-0.565,0.178-0.931c0-0.33-0.07-0.618-0.216-0.867
		C63.968,7.821,63.77,7.601,63.516,7.409"/>
	<path fill="#AEAEB8" d="M66.96,3.943c0.167,0.044,0.285,0.086,0.353,0.124c0.07,0.037,0.127,0.084,0.168,0.146
		c0.042,0.061,0.071,0.146,0.089,0.255c0.019,0.112,0.028,0.288,0.028,0.529V9.54c0,0.259-0.013,0.452-0.036,0.579
		c-0.024,0.126-0.073,0.222-0.152,0.29c-0.076,0.068-0.226,0.131-0.451,0.187v0.257h2.302v-0.257
		c-0.168-0.042-0.287-0.086-0.363-0.126c-0.075-0.043-0.131-0.095-0.167-0.159c-0.04-0.062-0.067-0.149-0.084-0.256
		c-0.015-0.11-0.023-0.283-0.023-0.516V4.997c0-0.241,0.009-0.42,0.027-0.535c0.024-0.115,0.055-0.203,0.095-0.259
		c0.042-0.059,0.098-0.106,0.17-0.145c0.07-0.038,0.184-0.077,0.346-0.114V3.684H66.96V3.943z"/>
	<path fill="#AEAEB8" d="M75.939,3.943c0.168,0.044,0.285,0.086,0.354,0.124c0.064,0.037,0.119,0.083,0.155,0.141
		c0.04,0.06,0.066,0.148,0.081,0.257c0.013,0.115,0.02,0.29,0.02,0.531v1.105c0,0.509,0.009,1.084,0.021,1.719
		c0.014,0.635,0.031,1.06,0.051,1.273H76.55c-0.095-0.196-0.187-0.371-0.275-0.531c-0.091-0.155-0.2-0.34-0.329-0.551L73.25,3.684
		h-1.708v0.259c0.169,0.044,0.286,0.086,0.355,0.124c0.069,0.037,0.126,0.084,0.166,0.146c0.042,0.061,0.072,0.146,0.093,0.255
		c0.015,0.112,0.024,0.288,0.024,0.529V9.54c0,0.259-0.013,0.452-0.036,0.579c-0.021,0.126-0.073,0.222-0.149,0.29
		c-0.076,0.068-0.228,0.131-0.453,0.187v0.257h1.992v-0.257c-0.169-0.042-0.289-0.086-0.363-0.126
		c-0.074-0.043-0.132-0.095-0.169-0.159c-0.039-0.062-0.066-0.149-0.083-0.256c-0.014-0.11-0.025-0.283-0.025-0.516V8.47
		c0-0.701-0.004-1.405-0.018-2.111c-0.008-0.704-0.026-1.191-0.051-1.462h0.09c0.071,0.137,0.145,0.276,0.226,0.417
		c0.078,0.138,0.213,0.361,0.403,0.665l3.038,4.905h0.684V4.997c0-0.254,0.008-0.44,0.031-0.551
		c0.023-0.112,0.054-0.195,0.096-0.253c0.041-0.056,0.093-0.101,0.164-0.136c0.065-0.033,0.183-0.074,0.347-0.114V3.684h-1.965
		V3.943z"/>
	<path fill="#AEAEB8" d="M84.878,9.554c-0.042,0.125-0.092,0.244-0.155,0.359c-0.062,0.116-0.133,0.211-0.211,0.282
		c-0.082,0.07-0.177,0.12-0.288,0.152c-0.11,0.029-0.256,0.044-0.434,0.044h-1.697V7.361h1.165c0.172,0,0.301,0.024,0.387,0.068
		c0.085,0.046,0.158,0.122,0.222,0.23c0.062,0.106,0.115,0.263,0.169,0.473h0.511V6.117h-0.511
		c-0.056,0.224-0.113,0.388-0.172,0.493c-0.061,0.105-0.135,0.18-0.228,0.224c-0.09,0.042-0.215,0.065-0.378,0.065h-1.165V4.148
		h1.725c0.142,0,0.262,0.01,0.364,0.028c0.104,0.018,0.192,0.056,0.263,0.108c0.075,0.051,0.144,0.123,0.208,0.21
		c0.06,0.087,0.121,0.197,0.18,0.325c0.058,0.129,0.115,0.28,0.168,0.452h0.533V3.684h-5.1v0.259
		c0.167,0.044,0.287,0.086,0.353,0.124c0.072,0.037,0.126,0.084,0.168,0.146c0.042,0.061,0.071,0.146,0.089,0.255
		c0.019,0.112,0.026,0.288,0.026,0.529v4.544c0,0.258-0.009,0.452-0.036,0.578c-0.022,0.126-0.07,0.222-0.147,0.291
		c-0.077,0.068-0.229,0.13-0.454,0.186v0.257h5.05l0.106-1.844h-0.541C84.978,9.249,84.921,9.429,84.878,9.554"/>
	<path fill="#AEAEB8" d="M91.866,7.409c-0.259-0.193-0.62-0.401-1.087-0.625c-0.384-0.182-0.676-0.346-0.87-0.495
		c-0.199-0.145-0.343-0.306-0.435-0.477c-0.093-0.172-0.139-0.38-0.139-0.629c0-0.236,0.054-0.437,0.164-0.607
		c0.11-0.17,0.257-0.298,0.443-0.383c0.188-0.084,0.401-0.126,0.638-0.126c0.272,0,0.493,0.037,0.665,0.103
		c0.169,0.067,0.318,0.187,0.447,0.36c0.128,0.172,0.233,0.41,0.317,0.719h0.539V3.832c-0.393-0.097-0.727-0.164-0.988-0.189
		c-0.265-0.029-0.537-0.042-0.812-0.042c-0.478,0-0.899,0.079-1.268,0.236c-0.368,0.157-0.65,0.381-0.84,0.67
		c-0.192,0.289-0.288,0.629-0.288,1.021c0,0.269,0.065,0.517,0.184,0.746c0.121,0.226,0.306,0.439,0.552,0.633
		c0.246,0.193,0.584,0.394,1.01,0.595c0.441,0.212,0.768,0.396,0.984,0.553c0.212,0.158,0.366,0.324,0.463,0.503
		c0.095,0.177,0.139,0.398,0.139,0.662c0,0.41-0.113,0.72-0.338,0.934c-0.228,0.213-0.555,0.32-0.983,0.32
		c-0.306,0-0.56-0.043-0.755-0.128c-0.197-0.088-0.358-0.217-0.481-0.397c-0.125-0.179-0.223-0.423-0.292-0.73h-0.549v1.439
		c0.748,0.186,1.405,0.279,1.976,0.279c0.353,0,0.676-0.037,0.974-0.107c0.296-0.071,0.55-0.19,0.765-0.347
		c0.21-0.158,0.378-0.368,0.498-0.621c0.12-0.253,0.177-0.565,0.177-0.931c0-0.33-0.066-0.618-0.213-0.867
		C92.319,7.821,92.119,7.601,91.866,7.409"/>
	<path fill="#AEAEB8" d="M99.11,7.409c-0.259-0.193-0.618-0.401-1.084-0.625c-0.385-0.182-0.677-0.346-0.873-0.495
		c-0.195-0.145-0.34-0.306-0.434-0.477c-0.093-0.172-0.14-0.38-0.14-0.629c0-0.236,0.055-0.437,0.166-0.607
		c0.109-0.17,0.255-0.298,0.443-0.383c0.187-0.084,0.399-0.126,0.637-0.126c0.272,0,0.493,0.037,0.667,0.103
		c0.168,0.067,0.317,0.187,0.445,0.36c0.128,0.172,0.234,0.41,0.315,0.719h0.542V3.832c-0.397-0.097-0.726-0.164-0.99-0.189
		c-0.265-0.029-0.533-0.042-0.81-0.042c-0.475,0-0.898,0.079-1.268,0.236c-0.37,0.157-0.649,0.381-0.84,0.67
		c-0.192,0.289-0.286,0.629-0.286,1.021c0,0.269,0.059,0.517,0.183,0.746c0.122,0.226,0.304,0.439,0.554,0.633
		c0.245,0.193,0.585,0.394,1.008,0.595c0.441,0.212,0.769,0.396,0.983,0.553c0.215,0.158,0.366,0.324,0.463,0.503
		c0.093,0.177,0.142,0.398,0.142,0.662c0,0.41-0.113,0.72-0.342,0.934c-0.226,0.213-0.552,0.32-0.977,0.32
		c-0.31,0-0.563-0.043-0.758-0.128c-0.195-0.088-0.36-0.217-0.481-0.397c-0.127-0.179-0.221-0.423-0.294-0.73h-0.546v1.439
		c0.745,0.186,1.403,0.279,1.976,0.279c0.35,0,0.676-0.037,0.971-0.107c0.297-0.071,0.552-0.19,0.765-0.347
		c0.212-0.158,0.38-0.368,0.499-0.621c0.118-0.253,0.18-0.565,0.18-0.931c0-0.33-0.071-0.618-0.216-0.867
		C99.564,7.821,99.366,7.601,99.11,7.409"/>
	<path fill="#AEAEB8" d="M46.934,17.96c-0.661,0-1.228,0.154-1.708,0.463c-0.473,0.308-0.836,0.745-1.082,1.307
		c-0.243,0.565-0.366,1.222-0.366,1.972c0,1.193,0.235,2.09,0.707,2.692c0.472,0.603,1.172,0.904,2.094,0.904
		c0.431,0,0.822-0.021,1.18-0.065c0.361-0.046,0.711-0.112,1.052-0.196v-1.504h-0.54c-0.115,0.346-0.241,0.609-0.368,0.786
		c-0.129,0.18-0.29,0.309-0.477,0.395c-0.189,0.08-0.434,0.12-0.733,0.12c-0.391,0-0.722-0.12-0.99-0.37
		c-0.271-0.246-0.475-0.612-0.612-1.096c-0.141-0.486-0.208-1.072-0.208-1.757c0-0.683,0.085-1.265,0.251-1.745
		c0.167-0.483,0.398-0.844,0.69-1.082c0.29-0.24,0.627-0.361,0.998-0.361c0.254,0,0.469,0.038,0.647,0.117
		c0.175,0.074,0.334,0.204,0.469,0.386c0.133,0.181,0.244,0.424,0.333,0.725h0.54v-1.454c-0.363-0.091-0.679-0.154-0.961-0.186
		C47.572,17.975,47.266,17.96,46.934,17.96"/>
	<path fill="#AEAEB8" d="M55.704,23.913c-0.04,0.124-0.093,0.244-0.154,0.359c-0.061,0.116-0.133,0.209-0.212,0.283
		c-0.082,0.07-0.175,0.122-0.286,0.151c-0.112,0.029-0.256,0.044-0.436,0.044H52.92V21.72h1.168c0.172,0,0.3,0.025,0.386,0.068
		c0.083,0.045,0.157,0.122,0.219,0.23c0.061,0.106,0.119,0.263,0.17,0.473h0.512v-2.015h-0.512
		c-0.055,0.226-0.113,0.388-0.172,0.494c-0.059,0.105-0.137,0.18-0.226,0.222c-0.093,0.046-0.217,0.068-0.377,0.068H52.92v-2.753
		h1.724c0.142,0,0.264,0.009,0.366,0.029c0.101,0.019,0.189,0.056,0.264,0.108c0.075,0.051,0.143,0.122,0.203,0.209
		c0.064,0.089,0.124,0.197,0.18,0.325c0.059,0.131,0.115,0.28,0.172,0.453h0.534v-1.588h-5.102v0.258
		c0.168,0.047,0.287,0.087,0.356,0.125c0.067,0.037,0.124,0.085,0.165,0.147c0.042,0.061,0.073,0.146,0.093,0.255
		c0.018,0.112,0.025,0.287,0.025,0.53v4.543c0,0.258-0.009,0.449-0.036,0.577c-0.022,0.127-0.071,0.223-0.149,0.29
		c-0.079,0.069-0.226,0.131-0.453,0.187v0.257h5.053l0.103-1.842h-0.538C55.803,23.608,55.747,23.789,55.704,23.913"/>
	<path fill="#AEAEB8" d="M62.936,18.301c0.167,0.047,0.285,0.087,0.352,0.124c0.067,0.038,0.12,0.085,0.158,0.146
		c0.041,0.057,0.065,0.145,0.082,0.253c0.013,0.116,0.02,0.292,0.02,0.534v1.102c0,0.511,0.008,1.083,0.022,1.719
		c0.015,0.636,0.032,1.06,0.048,1.274h-0.071c-0.096-0.195-0.185-0.373-0.276-0.53c-0.088-0.157-0.201-0.341-0.328-0.553
		l-2.698-4.327h-1.706v0.258c0.168,0.047,0.285,0.087,0.352,0.124c0.071,0.038,0.128,0.085,0.17,0.147
		c0.04,0.062,0.07,0.147,0.089,0.257c0.018,0.111,0.026,0.287,0.026,0.529V23.9c0,0.258-0.011,0.45-0.036,0.578
		c-0.024,0.127-0.07,0.223-0.152,0.291c-0.074,0.069-0.224,0.13-0.45,0.186v0.258h1.991v-0.258
		c-0.168-0.041-0.288-0.083-0.363-0.124c-0.074-0.043-0.131-0.095-0.169-0.159c-0.04-0.062-0.064-0.149-0.08-0.255
		c-0.018-0.11-0.029-0.282-0.029-0.516v-1.073c0-0.7-0.004-1.403-0.014-2.109c-0.011-0.704-0.029-1.191-0.055-1.462h0.095
		c0.067,0.137,0.138,0.276,0.22,0.417c0.08,0.14,0.215,0.361,0.405,0.665l3.036,4.907h0.686v-5.888c0-0.258,0.011-0.441,0.031-0.551
		c0.024-0.114,0.053-0.198,0.096-0.254c0.04-0.056,0.095-0.101,0.164-0.137c0.066-0.032,0.182-0.072,0.344-0.115v-0.258h-1.963
		V18.301z"/>
	<path fill="#AEAEB8" d="M66.647,19.872h0.54c0.07-0.28,0.144-0.513,0.222-0.695c0.08-0.185,0.167-0.328,0.257-0.428
		c0.095-0.1,0.2-0.164,0.312-0.197c0.11-0.031,0.253-0.047,0.425-0.047h0.685v5.38c0,0.207-0.012,0.369-0.031,0.476
		c-0.02,0.107-0.048,0.195-0.082,0.258c-0.036,0.061-0.078,0.116-0.131,0.155c-0.053,0.038-0.121,0.074-0.205,0.102
		c-0.082,0.028-0.181,0.055-0.29,0.078v0.258h2.495v-0.258c-0.179-0.04-0.31-0.077-0.392-0.117c-0.084-0.041-0.15-0.098-0.201-0.169
		c-0.048-0.072-0.084-0.168-0.107-0.289c-0.026-0.123-0.035-0.29-0.035-0.494v-5.38h0.689c0.2,0,0.351,0.02,0.452,0.06
		c0.1,0.037,0.195,0.102,0.28,0.195c0.088,0.088,0.172,0.222,0.25,0.397c0.077,0.173,0.157,0.413,0.235,0.715h0.536v-1.83h-5.904
		V19.872z"/>
	<path fill="#AEAEB8" d="M79.348,23.913c-0.043,0.124-0.095,0.244-0.156,0.359c-0.062,0.116-0.135,0.209-0.216,0.283
		c-0.077,0.07-0.174,0.122-0.285,0.151c-0.111,0.029-0.255,0.044-0.432,0.044h-1.698V21.72h1.168c0.172,0,0.297,0.025,0.383,0.068
		c0.086,0.045,0.159,0.122,0.222,0.23c0.064,0.106,0.119,0.263,0.17,0.473h0.512v-2.015h-0.512
		c-0.057,0.226-0.113,0.388-0.172,0.494c-0.06,0.105-0.135,0.18-0.226,0.222c-0.091,0.046-0.217,0.068-0.376,0.068h-1.168v-2.753
		h1.724c0.141,0,0.263,0.009,0.365,0.029c0.102,0.019,0.192,0.056,0.267,0.108c0.075,0.051,0.14,0.122,0.204,0.209
		c0.059,0.089,0.122,0.197,0.18,0.325c0.059,0.131,0.115,0.28,0.167,0.453h0.535v-1.588h-5.101v0.258
		c0.169,0.047,0.288,0.087,0.357,0.125c0.069,0.037,0.124,0.085,0.165,0.147c0.042,0.061,0.072,0.146,0.09,0.255
		c0.02,0.112,0.027,0.287,0.027,0.53v4.543c0,0.258-0.009,0.449-0.033,0.577c-0.026,0.127-0.074,0.223-0.151,0.29
		c-0.076,0.069-0.228,0.131-0.454,0.187v0.257h5.054l0.103-1.842h-0.539C79.445,23.608,79.388,23.789,79.348,23.913"/>
	<path fill="#AEAEB8" d="M88.079,24.81c-0.105-0.074-0.21-0.172-0.31-0.305c-0.102-0.133-0.225-0.326-0.367-0.579l-0.49-0.861
		c-0.193-0.345-0.369-0.595-0.527-0.759c-0.158-0.164-0.348-0.289-0.57-0.376v-0.043c0.55-0.187,0.961-0.451,1.239-0.787
		c0.27-0.335,0.409-0.744,0.409-1.222c0-0.627-0.212-1.09-0.634-1.387c-0.421-0.298-1.057-0.448-1.909-0.448H82.22v0.258
		c0.167,0.046,0.286,0.086,0.357,0.124c0.069,0.037,0.126,0.085,0.164,0.147c0.042,0.061,0.074,0.147,0.091,0.255
		c0.02,0.112,0.029,0.287,0.029,0.53v4.543c0,0.258-0.013,0.45-0.038,0.577c-0.024,0.127-0.072,0.223-0.149,0.29
		c-0.077,0.069-0.226,0.131-0.453,0.187v0.257h2.301v-0.257c-0.166-0.046-0.284-0.087-0.353-0.123
		c-0.069-0.037-0.124-0.085-0.163-0.143c-0.041-0.056-0.07-0.144-0.088-0.256c-0.021-0.114-0.033-0.298-0.033-0.549v-1.786h0.601
		c0.178,0,0.312,0.009,0.4,0.03c0.089,0.018,0.173,0.052,0.251,0.105c0.081,0.049,0.165,0.137,0.259,0.264
		c0.092,0.127,0.211,0.323,0.355,0.587l0.481,0.877c0.121,0.221,0.241,0.438,0.368,0.652c0.122,0.211,0.253,0.413,0.391,0.598H88.5
		v-0.257C88.326,24.926,88.185,24.877,88.079,24.81 M85.268,21.581c-0.194,0.043-0.45,0.066-0.769,0.066h-0.616v-3.121
		c0.205-0.013,0.468-0.02,0.798-0.02c0.408,0,0.73,0.06,0.971,0.174c0.239,0.114,0.418,0.284,0.538,0.504
		c0.118,0.22,0.177,0.497,0.177,0.829c0,0.319-0.049,0.588-0.151,0.805c-0.099,0.22-0.234,0.393-0.401,0.513
		C85.647,21.455,85.465,21.539,85.268,21.581"/>
</g>
</svg>
